<?xml version="1.0" encoding="UTF-8"?>
<svg version="1.1" viewBox="0 0 288 288" xmlns="http://www.w3.org/2000/svg">
<svg width="288" height="288" enable-background="new 0 0 600 600" viewBox="0 0 600 600" xmlns="http://www.w3.org/2000/svg">
<path class="colorE1ECFF svgShape" d="m373.5 373.6h-10.7c2.1-2.9 3.4-6.9 3.4-11.2 0-9.1-5.6-16.4-12.6-16.4h-252.9c-7 0-12.6 7.4-12.6 16.4 0 9.1 5.6 16.4 12.6 16.4h7.2c1.1 0 2.1 0.3 2.9 0.8-1.8 2.8-2.9 6.5-2.9 10.4 0 9.1 5.6 16.4 12.6 16.4h7.2c4 0 7.2 4.3 7.2 9.6v0.1c0 9.1 5.6 16.4 12.6 16.4h179.7c7 0 12.6-7.4 12.6-16.4v-0.1c0-5.2 3.2-9.6 7.2-9.6h26.5c7 0 12.6-7.4 12.6-16.4 0-9.1-5.6-16.4-12.6-16.4z" fill="#1a2e5a"/>
<path class="colorFC7EC1 svgShape" d="m355.3 284.3-134.7-51.2-1.9 93.8 119.2 55.8c3.1 1.5 6.7-0.6 7.1-4l10.3-94.4z" fill="#1a1a4a"/>
<path class="colorF969BB svgShape" d="m142.9 359.5 75.8-32.6 1.9-93.8-90.3 38.4 5.4 83.6c0.3 3.6 3.9 5.8 7.2 4.4z" fill="#1a2e5a"/>
<path class="colorFF97C9 svgShape" d="m220.6 233.1h-27.5c-5.2 0-10.3 1.1-15 3.2l-75.1 33.2c-2 0.9-1.3 3.9 0.9 3.7l26.3-1.7 90.4-38.4zl134.7 51.2h14.5c1.7 0 2.1-2.4 0.5-3l-126.3-46.7c-2.6-1-5.4-1.5-8.2-1.5h-15.2z" fill="#ffb956"/>
<path class="colorFF8D76 svgShape" d="m253 349-9.9 28.3s-18.6-18.9-34.3-51.4c-4-8.2-5.5-16.9-5.6-25.2-0.3-20.9 8.9-39.2 13-39.6 4.3-0.4-1.3 16.7 0.2 33.9 0.5 5.7 1.7 11.3 4.3 16.4 13.4 26.3 32.3 37.6 32.3 37.6z" fill="#ff8d76"/>
<path class="colorFFD3B3 svgShape" d="m216.3 295c-3.1 1.9-8.4 4.7-13.2 5.6-0.3-20.9 8.9-39.2 13-39.6 4.3-0.3-1.2 16.8 0.2 34z" fill="#ffd3b3"/>
<path class="colorFEA691 svgShape" d="m318.2 357.5c-0.8 20.3-16.7 37.5-37.9 40.5-3.5 0.5-7.2 0.8-11.2 0.8-3.9 0-7.4-0.1-10.7-0.5-19.9-2.1-35.6-17.1-38-35.9-2.3-18.2-3.9-45.4 3.4-63.8 1.8-4.6 4.3-8.5 7.2-11.9 10-11.4 25-15.5 36.8-15.7 11.9-0.2 28.6 2.8 39.2 14.4 4.9 5.3 8.5 12.4 9.8 21.9 2.1 15.7 2 35.2 1.4 50.2z" fill="#fea691"/>
<path class="colorFFD3B3 svgShape" d="m267.6 379.7c19.2 0.3 33-7.8 34.3-28.4s4.3-53.9-32.8-54.7-33.2 36.6-33.5 50.6 8.3 32.1 32 32.5z" fill="#ffd3b3"/>
<path class="colorFF8D76 svgShape" d="m306.9 285.5c-10.2 5.2-24.1 8.5-39.4 8.5-14 0-26.8-2.7-36.6-7.1 10-11.4 25-15.5 36.8-15.7 11.9-0.3 28.6 2.7 39.2 14.3z" fill="#ff8d76"/>
<path class="colorFF97C9 svgShape" d="m130.3 271.5 5.4 83.4c0.3 4.7 3 8.9 7.2 11.1l116.6 61.7 1.8-100.6-131-55.6z" fill="#ffb956"/>
<path class="colorFC7EC1 svgShape" d="m133.7 324.2 95.6 46.6c5 2.4 10.9 0.9 14.1-3.6l17.8-25.4v-14.7l-131-55.6 3.5 52.7z" fill="#1a1a4a"/>
<path class="colorFF97C9 svgShape" d="m116.8 308.5 113.7 53.6c3.3 1.6 7.2 0.5 9.3-2.6l21.6-32.4-131-55.6-16.6 26.4c-2.5 3.8-1 8.7 3 10.6z" fill="#ffb956"/>
<path class="colorFC7EC1 svgShape" d="m336.3 389.7-76.8 38 1.8-100.6 94-42.8-10.1 92.7c-0.6 5.5-4 10.2-8.9 12.7z" fill="#1a1a4a"/>
<path class="colorF969BB svgShape" d="m261.3 341.8 10.6 23c2.6 5.6 9.3 7.9 14.8 5.2l62.8-31.7 5.9-53.9-94 42.8v14.6z" fill="#1a2e5a"/>
<path class="colorFF97C9 svgShape" d="m279.6 359.5-18.3-32.4 94-42.8 17.1 28.7c1.7 2.8 0.6 6.5-2.3 7.9l-83.1 40.8c-2.7 1.3-5.9 0.3-7.4-2.2z" fill="#ffb956"/>
<path class="colorFEA691 svgShape" d="m377.1 229.5c-0.2 4-4.7 26.9-27.2 46.2-21 18-49.4 31.7-49.4 31.7l-1.6-42.2s25.8-7.6 40.9-20.7 20.4-26 24.2-27.6c1.6-0.7 3-0.6 4-0.4 1.4 0.3 2.2 1.1 2.2 1.1s0.1 0 0.3-0.1c0.7-0.2 2.4-0.4 4 1.4 1.1 1.2 0.8 4.7 0.8 4.7s1.2 1.2 1.5 3.7c0.3 0.7 0.4 1.4 0.3 2.2z" fill="#fea691"/>
<ellipse class="colorFFD3B3 svgShape" transform="rotate(30.679 361.28 240.25)" cx="361.3" cy="240.2" rx="7.1" ry="8.8" fill="#ffd3b3"/>
<path class="colorFF8D76 svgShape" d="M370.7 217.6c-.2.9-.6 2.4-1.5 4.6-1.6 3.8-2.8 5.5-3.4 5.7-1.5.6-1.7-1.5-.2-4.4 1.1-2.3 2.1-5.6 2.5-6.9 1.4.3 2.2 1.1 2.2 1.1S370.5 217.6 370.7 217.6zM377.1 227.4c-.2.4-.3.8-.5 1.3-1.7 3.8-3 5.4-3.6 5.6-1.5.5-1.6-1.5-.1-4.4 1.6-2.9 2.7-6.2 2.7-6.2S376.7 224.9 377.1 227.4zM301.7 307c-.5 0-1-.3-1.2-.8-.3-.7 0-1.5.7-1.8.2-.1 24.1-10.5 44.4-27.2 25.7-21.1 28.9-42.3 28.9-42.5.1-.7.8-1.3 1.5-1.2.7.1 1.3.8 1.2 1.5-.1.9-3.3 22.3-29.9 44.2-20.6 16.9-44.7 27.5-45 27.6C302.1 306.9 301.9 307 301.7 307z" fill="#ff8d76"/>
<g class="color000 svgShape">
<path class="colorFEA691 svgShape" d="m278.7 185.1s10-22.7 15.9-23.8c5.8-1.1 8.8 13.2 11.2 25.1 2.5 11.9 3.1 21.8 3.1 21.8l-30.2-23.1z" fill="#fea691"/>
<path class="colorFFD3B3 svgShape" d="m283.9 185s6.6-14.8 10.4-15.5 5.7 8.7 7.3 16.4c1.6 7.8 2.1 14.2 2.1 14.2l-19.8-15.1z" fill="#ffd3b3"/>
<path class="colorFEA691 svgShape" d="m257.5 185.1s-10-22.7-15.9-23.8c-5.8-1.1-8.8 13.2-11.2 25.1s-3.1 21.8-3.1 21.8l30.2-23.1z" fill="#fea691"/>
<path class="colorFFD3B3 svgShape" d="m252.3 185s-6.6-14.8-10.4-15.5-5.7 8.7-7.3 16.4c-1.6 7.8-2.1 14.2-2.1 14.2l19.8-15.1z" fill="#ffd3b3"/>
<path class="colorFEA691 svgShape" d="m311.8 247.5-26.2-0.7-37.9-1-24.3-0.6s-1.1-34.1 8.8-50.5c5.2-8.7 14.9-14.8 25.6-17.3 5.4-1.3 11.1-1.7 16.6-1 7.2 0.9 14.1 3.6 19.5 8.4 17.5 15.5 15.7 29.9 16.8 41.8s1.1 20.9 1.1 20.9z" fill="#fea691"/>
<path class="colorFFD3B3 svgShape" d="m285.6 246.8-37.9-1c2-5.1 5.5-15.7 7.5-30.1 2-14 2.4-29.6 2.5-38.3 5.4-1.3 11.1-1.7 16.6-1 0.1 8.1 0.7 22.2 3.1 38 2.7 17.6 6.4 28 8.2 32.4z" fill="#ffd3b3"/>
<path class="colorFFD3B3 svgShape" d="m315.4 257.4c0 16.5-21.4 29.9-47.8 29.9s-47.8-13.4-47.8-29.9c0-20.5 21.4-29.9 47.8-29.9s47.8 10.4 47.8 29.9z" fill="#ffd3b3"/>
<path class="color413F4C svgShape" d="m255.6 239.1c2.6-3.7 21.9-5 24.6-0.9 2.7 4-4.4 12.7-11.3 12.7s-16.8-6.9-13.3-11.8" fill="#413f4c"/>
<path class="colorFF8D76 svgShape" d="M234.2 193.7c-.3 0-.6-.1-.8-.3-.6-.4-.7-1.3-.3-1.9.1-.2 3.4-4.5 9.1-8.2 6.8-4.5 10.3-5.4 10.4-5.4.7-.2 1.5.2 1.6 1 .2.7-.2 1.5-1 1.6 0 0-3.3.9-9.6 5.1-5.3 3.5-8.5 7.6-8.5 7.6C235 193.5 234.6 193.7 234.2 193.7zM300.2 193.7c.3 0 .6-.1.8-.3.6-.4.7-1.3.3-1.9-.1-.2-3.4-4.5-9.1-8.2-6.8-4.5-10.3-5.4-10.4-5.4-.7-.2-1.5.2-1.6 1-.2.7.2 1.5 1 1.6 0 0 3.3.9 9.6 5.1 5.3 3.5 8.5 7.6 8.5 7.6C299.4 193.5 299.8 193.7 300.2 193.7z" fill="#ff8d76"/>
</g>
<g class="color000 svgShape">
<path class="colorFF6EA9 svgShape" d="m258.1 265.5s7.7-0.8 11.4-6.8c4.4 6.1 10.8 4.7 10.8 4.7s1.3 12-9.6 12.9c-11.5 1-12.6-10.8-12.6-10.8" fill="#1a2e5a"/>
<path class="colorEA4E95 svgShape" d="m269.4 272.4c-0.8-0.1-1.5-0.8-1.4-1.6 0.1-4-0.2-11.1-0.2-11.2 0-0.9 0.6-1.6 1.5-1.6 0.8 0 1.6 0.6 1.6 1.5 0 0.3 0.3 7.4 0.2 11.5-0.1 0.7-0.8 1.4-1.7 1.4 0.1 0 0 0 0 0z" fill="#ea4e95"/>
</g>
<g class="color000 svgShape">
<path class="color413F4C svgShape" d="m256.9 267.1c-4.7 0-8.3-1.7-8.4-1.8-0.9-0.4-1.2-1.5-0.8-2.4s1.5-1.2 2.4-0.8c0.4 0.2 10.8 5.2 18-4.4 0.3-0.5 0.9-0.7 1.4-0.7 0.6 0 1.1 0.3 1.4 0.8 4.8 6.9 14.5 3.4 14.9 3.3 0.9-0.3 1.9 0.1 2.3 1 0.3 0.9-0.1 1.9-1 2.3-4 1.5-12.3 2.6-17.6-2.8-4.1 4.3-8.7 5.5-12.6 5.5z" fill="#413f4c"/>
</g>
<g class="color000 svgShape">
<ellipse class="color413F4C svgShape" cx="288.6" cy="220.4" rx="4.4" ry="5.2" fill="#413f4c"/>
</g>
<g class="color000 svgShape">
<ellipse class="color413F4C svgShape" cx="244.2" cy="220.4" rx="4.4" ry="5.2" fill="#413f4c"/>
</g>
<g class="color000 svgShape">
<path class="colorFFD3B3 svgShape" d="m281.2 204.4c0.8-2.7 5.6-2.4 9.1-1.2s6.3 3.5 5.5 4.9c-0.8 1.5-16.2 1.5-14.6-3.7" fill="#ffd3b3"/>
</g>
<g class="color000 svgShape">
<path class="colorFFD3B3 svgShape" d="m249.9 204.3c-0.9-2.7-5.7-2.3-9.2-1s-6.2 3.6-5.3 5 16.3 1.1 14.5-4" fill="#ffd3b3"/>
</g>
<g class="color000 svgShape">
<path class="colorBBCBFF svgShape" d="m506.7 400.9-51.1 17.7-23.6 8.2-5.7 2-41.6 14.4c-5.9 2.1-12.5 0.6-17.1-3.7l-5.3-5.1c-3-2.9-2.8-7.6-0.1-10.3 0.7-0.7 1.6-1.3 2.6-1.6l121.8-42.4c3.6-1.2 7.5-0.5 10.3 2l11.3 9.8c0.4 0.3 0.7 0.7 1 1.1 2 2.8 0.9 6.7-2.5 7.9z" fill="#ffbf66"/>
<path class="colorBBCBFF svgShape" d="m476.7 457.9-57.2 18.3c-5.3 1.7-11.1 0.5-15.3-3.2l-5.3-4.7c-2.9-2.5-3.1-6.6-1.2-9.4 0.9-1.3 2.2-2.3 3.8-2.8l37.9-11.4c0.3-0.1 0.5-0.2 0.7-0.4 1.2-0.9 1.3-2.6 0.1-3.7l-13.9-11.9-4.5-3.8-0.8-0.7c-4.4-3.7-2.8-10.9 2.8-12.3l19.5-5.1 12.3 11.8 24.7 23.6c0.8 0.7 1.4 1.6 1.8 2.5 2.6 4.9 0.3 11.4-5.4 13.2z" fill="#ffbf66"/>
<path class="color99ADF9 svgShape" d="m440.2 444.3c1.2-0.9 1.3-2.6 0.1-3.7l-13.9-11.9-41.6 14.4c-5.9 2.1-12.5 0.6-17.1-3.7l-5.3-5.1c-3-2.9-2.8-7.6-0.1-10.3 2.6 3.8 11.6 12.6 17.5 12.8 5.7 0.2 47.6-14.7 47.6-14.7s18.3 15.6 19 16.4c1.9 2-3 5-6.2 5.8zm66.5-43.4-51.1 17.7-5.4-5s50.2-18.2 56.7-20c0.9-0.2 1.7-0.4 2.5-0.6 1.8 2.8 0.7 6.7-2.7 7.9zm-30 57-57.2 18.3c-5.3 1.7-11.1 0.5-15.3-3.2l-5.3-4.7c-2.9-2.5-3.1-6.6-1.2-9.4 4.5 3.1 13.7 9.5 16 10.1 3 0.7 15.3-3.3 28.7-8.1s35.4-13.7 39.8-16.1c2.5 4.8 0.2 11.3-5.5 13.1z" fill="#380a0a"/>
</g>
<g class="color000 svgShape">
<path class="colorBBCBFF svgShape" d="m484.6 316c-1.9-5.9-6.9-11.2-16.4-15.8-29.6-14.4-61.7 15-80.8 35.6-9.6 10.4-15.7 19.8-17.1 28-1.4 8.1 1.8 14.9 10.9 19.9 35 19.4 65.5-6 84.4-26.6 12.6-14.1 23-28.7 19-41.1zm-41.6 26.5c-17.5 15.7-32.9 29.3-45.2 22.2-1-0.6-1.7-1.3-2.1-2.2-2-4.6 4.7-13.2 20.4-26.3 18.7-15.7 29.6-24.1 39.2-20.5 2.4 0.9 3.9 2 4.5 3.4 2.1 4.3-3.6 11.5-16.8 23.4z" fill="#ffbf66"/>
<path class="color99ADF9 svgShape" d="m465.4 357c-18.9 20.7-49.4 46.1-84.4 26.6-9.1-5-12.3-11.8-10.9-19.9 2.8 5.5 8.6 12.7 20.6 16 20.7 5.7 41.9 0.3 63.8-20.9 19.2-18.7 25.7-32.8 30-42.8 4.1 12.4-6.3 27-19.1 41z" fill="#380a0a"/>
<path class="color99ADF9 svgShape" d="m459.8 319c-0.7-1.4-2.2-2.5-4.5-3.4-9.6-3.6-20.5 4.8-39.2 20.5-15.7 13.2-22.4 21.7-20.4 26.3-1-0.8-2.1-2.3-2.5-5.5-0.7-6 3-11.8 13.8-21.8s26.3-22.7 35.8-24.7c9.4-1.9 16 3 16.9 6.9 0.1 0.6 0.1 1.1 0.1 1.7z" fill="#380a0a"/>
</g>
<g class="color000 svgShape">
<path class="colorBBCBFF svgShape" d="m401.4 285.2-9 4.2c-5.2 2.4-11.5 0.1-13.8-5.2l-47.6-108.6c-1.4-3.3-0.7-7 1.6-9.5 0.8-0.9 1.8-1.6 2.9-2.1l11.4-5.1c4.5-2 9.7 0 11.7 4.5l47.9 108.3c0.5 1 0.7 2.1 0.8 3.2 0.4 4.2-1.8 8.4-5.9 10.3z" fill="#ffbf66"/>
<path class="colorBBCBFF svgShape" d="m430.3 203.1-45.1 20.3-9.6 4.3-15.8-22.2 36.4-16.5c0.5-0.2 0.9-0.5 1.3-0.9 1.6-1.5 1.9-4.1 0.4-6l-18.3-23.1c-2.9-3.7-2.5-8.7 0.3-12 0.9-1.1 2.1-1.9 3.5-2.5l7.4-2.9c3.8-1.5 8.2-0.4 10.8 2.9l32.9 41.5c0.4 0.5 0.7 1 1 1.6 3 5.6 0.8 12.7-5.2 15.5z" fill="#ffbf66"/>
<path class="color99ADF9 svgShape" d="m430.3 203.1-45.1 20.3-3.8-8s37.7-15.3 47.4-20.9c3.6-2.1 5.6-4.6 6.7-6.9 3 5.6 0.8 12.7-5.2 15.5zm-28.9 82.1-9 4.2c-5.2 2.4-11.5 0.1-13.8-5.2l-47.6-108.6c-1.4-3.3-0.7-7 1.6-9.5 9.6 21.2 52 114.8 52.5 116.1 0.6 1.5 0.8 2.5 5.1 0.6 4-1.8 13.7-5.4 17.2-7.9 0.3 4.2-1.9 8.4-6 10.3zm-4-97c1.6-1.5 1.9-4.1 0.4-6l-18.3-23.1c-2.9-3.7-2.5-8.7 0.3-12 3.9 5.1 23.5 30.5 25.3 33.8 1.4 2.4-3.9 5.5-7.7 7.3z" fill="#380a0a"/>
</g>
<g class="color000 svgShape" fill="#ffbf66">
<circle class="colorBBCBFF svgShape" cx="210.3" cy="179.7" r="5.3"/>
<circle class="colorBBCBFF svgShape" cx="210.3" cy="159" r="5.3"/>
<circle class="colorBBCBFF svgShape" cx="210.3" cy="138.3" r="5.3"/>
</g>
</svg>
</svg>
